# Blender v2.82 (sub 7) OBJ File: ''
# www.blender.org
mtllib ArrowArtifact.mtl
o ArrowModel_Cube.001
v 0.000000 -0.500000 0.282774
v -0.500000 0.500000 0.500000
v 0.000000 -0.500000 -0.279201
v -0.500000 0.500000 -0.500000
v 0.500000 0.500000 0.500000
v 0.500000 0.500000 -0.500000
v -0.313067 0.500000 0.313067
v -0.313067 0.500000 -0.313067
v 0.313067 0.500000 -0.313067
v 0.313067 0.500000 0.313067
v -0.396054 0.985748 0.396054
v -0.396054 0.985748 -0.396054
v 0.396054 0.985748 -0.396054
v 0.396054 0.985748 0.396054
v -0.036207 -0.427585 0.216028
v -0.463793 0.427585 0.401794
v -0.463793 0.427585 -0.401485
v -0.036207 -0.427585 -0.212665
v 0.000000 -0.319807 -0.318988
v -0.370375 0.420942 -0.482544
v 0.370375 0.420942 -0.482544
v 0.036207 -0.427585 -0.212665
v 0.463793 0.427585 -0.401485
v 0.463793 0.427585 0.401794
v 0.036207 -0.427585 0.216028
v 0.000000 -0.319781 0.321922
v 0.370332 0.420883 0.482814
v -0.370332 0.420883 0.482814
v -0.244600 0.579806 0.326702
v 0.244600 0.579806 0.326702
v 0.300318 0.905943 0.382420
v -0.300318 0.905943 0.382420
v 0.244600 0.579806 -0.326702
v -0.244600 0.579806 -0.326702
v -0.300318 0.905943 -0.382420
v 0.300318 0.905943 -0.382420
v 0.326702 0.579806 0.244600
v 0.326702 0.579806 -0.244600
v 0.382420 0.905943 -0.300318
v 0.382420 0.905943 0.300318
v -0.326702 0.579806 -0.244600
v -0.326702 0.579806 0.244600
v -0.382420 0.905943 0.300318
v -0.382420 0.905943 -0.300318
v 0.025422 -0.396771 0.216028
v -0.402164 0.458400 0.401794
v 0.025422 -0.396771 -0.212665
v -0.402164 0.458400 -0.401485
v -0.370375 0.435798 -0.415261
v -0.000000 -0.304951 -0.251705
v 0.370375 0.435798 -0.415261
v 0.402164 0.458400 -0.401485
v -0.025422 -0.396771 -0.212665
v -0.025422 -0.396771 0.216028
v 0.402164 0.458400 0.401794
v 0.370332 0.435510 0.415481
v 0.000000 -0.305155 0.254589
v -0.370332 0.435510 0.415481
v 0.244600 0.591409 0.258782
v -0.244600 0.591409 0.258782
v -0.300318 0.917546 0.314501
v 0.300318 0.917546 0.314500
v -0.244600 0.591409 -0.258782
v 0.244600 0.591409 -0.258782
v 0.300318 0.917546 -0.314501
v -0.300318 0.917546 -0.314500
v 0.258782 0.591409 -0.244600
v 0.258782 0.591409 0.244600
v 0.314501 0.917546 0.300318
v 0.314500 0.917546 -0.300318
v -0.258782 0.591409 0.244600
v -0.258782 0.591409 -0.244600
v -0.314501 0.917546 -0.300318
v -0.314500 0.917546 0.300318
vt 0.625000 0.969526
vt 0.625000 0.780474
vt 0.625000 0.780474
vt 0.625000 0.969526
vt 0.393104 0.217273
vt 0.393104 0.032720
vt 0.393104 0.032720
vt 0.393104 0.217273
vt 0.393104 0.532727
vt 0.606896 0.522257
vt 0.606896 0.522257
vt 0.393104 0.532727
vt 0.625000 0.030474
vt 0.625000 0.027323
vt 0.625000 0.027323
vt 0.625000 0.030474
vt 0.625000 0.250000
vt 0.625000 0.000000
vt 0.625000 0.000000
vt 0.625000 0.250000
vt 0.606896 0.022251
vt 0.606896 0.022251
vt 0.625000 1.000000
vt 0.625000 0.750000
vt 0.625000 0.750000
vt 0.625000 1.000000
vt 0.625000 0.500000
vt 0.625000 0.500000
vt 0.625000 0.500000
vt 0.875000 0.500000
vt 0.875000 0.750000
vt 0.625000 0.750000
vt 0.625000 0.222677
vt 0.625000 0.219526
vt 0.625000 0.219526
vt 0.625000 0.222677
vt 0.625000 0.277323
vt 0.625000 0.472677
vt 0.625000 0.472677
vt 0.625000 0.277323
vt 0.375000 0.000000
vt 0.606896 0.227743
vt 0.375000 0.250000
vt 0.605236 0.272524
vt 0.420048 0.272524
vt 0.605236 0.457711
vt 0.375000 0.500000
vt 0.606896 0.727749
vt 0.375000 0.750000
vt 0.393104 0.717280
vt 0.605221 0.772527
vt 0.420055 0.772527
vt 0.605221 0.957693
vt 0.625000 0.777323
vt 0.625000 1.000000
vt 0.625000 0.972677
vt 0.625000 0.280474
vt 0.625000 0.469526
vt 0.625000 0.250000
vt 0.625000 0.530474
vt 0.625000 0.719526
vt 0.625000 0.527323
vt 0.625000 0.722677
vt 0.625000 0.000000
vt 0.393104 0.717280
vt 0.606896 0.227743
vt 0.625000 0.972677
vt 0.606896 0.727749
vt 0.625000 0.777323
vt 0.625000 0.530474
vt 0.625000 0.719526
vt 0.625000 0.722677
vt 0.625000 0.527323
vt 0.605236 0.272524
vt 0.420048 0.272524
vt 0.605221 0.772527
vt 0.420055 0.772527
vt 0.605236 0.457711
vt 0.625000 0.280474
vt 0.625000 0.469526
vt 0.605221 0.957693
vn 0.0000 0.9857 0.1684
vn -0.4472 0.8944 -0.0000
vn 0.0866 0.1733 0.9811
vn -0.0280 0.1637 -0.9861
vn 0.0000 1.0000 0.0000
vn -0.0853 0.1706 -0.9816
vn -0.0280 0.1637 0.9861
vn 0.0000 -0.9857 0.1684
vn -0.1684 0.9857 0.0000
vn -0.8944 -0.4472 0.0000
vn 0.0000 -0.2156 -0.9765
vn 0.8944 -0.4472 -0.0000
vn 0.0000 -0.2123 0.9772
vn 0.0000 -0.1684 0.9857
vn 0.0000 -0.1684 -0.9857
vn 0.9857 -0.1684 0.0000
vn -0.9857 -0.1684 0.0000
vn 0.1684 -0.9857 0.0000
vn 0.4472 0.8944 -0.0000
vn 0.4472 -0.8944 -0.0000
vn 0.9861 0.1637 0.0280
vn -0.4472 -0.8944 0.0000
vn -0.0866 0.1733 0.9811
vn -0.9861 0.1637 0.0280
vn 0.0853 0.1706 -0.9816
vn 0.1684 0.9857 0.0000
vn 0.0000 -0.9857 -0.1684
vn 0.0280 0.1637 -0.9861
vn 0.0280 0.1637 0.9861
vn -0.1684 -0.9857 -0.0000
vn 0.8986 0.4284 -0.0946
vn -0.8985 0.4290 0.0932
vn -0.8986 0.4284 -0.0946
vn 0.0000 0.9857 -0.1684
vn 0.8985 0.4290 0.0932
vn 0.0000 -0.9765 0.2156
vn -0.9861 0.1637 -0.0280
vn 0.0000 -0.9772 -0.2123
vn 0.9861 0.1637 -0.0280
usemtl Border
s off
f 29/1/1 30/2/1 59/3/1 60/4/1
f 18/5/2 15/6/2 45/7/2 47/8/2
f 22/9/3 23/10/3 52/11/3 53/12/3
f 42/13/4 43/14/4 74/15/4 71/16/4
f 4/17/5 2/18/5 7/19/5 8/20/5
f 15/6/6 16/21/6 46/22/6 45/7/6
f 2/23/5 5/24/5 10/25/5 7/26/5
f 6/27/5 4/17/5 8/20/5 9/28/5
f 5/24/5 6/27/5 9/28/5 10/25/5
f 13/29/5 12/30/5 11/31/5 14/32/5
f 44/33/7 41/34/7 72/35/7 73/36/7
f 35/37/8 36/38/8 65/39/8 66/40/8
f 41/34/9 42/13/9 71/16/9 72/35/9
f 1/41/10 2/18/10 16/21/10 15/6/10
f 2/18/10 4/17/10 17/42/10 16/21/10
f 4/17/10 3/43/10 18/5/10 17/42/10
f 3/43/10 1/41/10 15/6/10 18/5/10
f 3/43/11 4/17/11 20/44/11 19/45/11
f 4/17/11 6/27/11 21/46/11 20/44/11
f 6/27/11 3/43/11 19/45/11 21/46/11
f 3/47/12 6/27/12 23/10/12 22/9/12
f 6/27/12 5/24/12 24/48/12 23/10/12
f 5/24/12 1/49/12 25/50/12 24/48/12
f 1/49/12 3/47/12 22/9/12 25/50/12
f 1/49/13 5/24/13 27/51/13 26/52/13
f 5/24/13 2/23/13 28/53/13 27/51/13
f 2/23/13 1/49/13 26/52/13 28/53/13
f 7/26/14 10/25/14 30/2/14 29/1/14
f 10/25/14 14/32/14 31/54/14 30/2/14
f 14/32/14 11/55/14 32/56/14 31/54/14
f 11/55/14 7/26/14 29/1/14 32/56/14
f 9/28/15 8/20/15 34/57/15 33/58/15
f 8/20/15 12/59/15 35/37/15 34/57/15
f 12/59/15 13/29/15 36/38/15 35/37/15
f 13/29/15 9/28/15 33/58/15 36/38/15
f 10/25/16 9/28/16 38/60/16 37/61/16
f 9/28/16 13/29/16 39/62/16 38/60/16
f 13/29/16 14/32/16 40/63/16 39/62/16
f 14/32/16 10/25/16 37/61/16 40/63/16
f 8/20/17 7/19/17 42/13/17 41/34/17
f 7/19/17 11/64/17 43/14/17 42/13/17
f 11/64/17 12/59/17 44/33/17 43/14/17
f 12/59/17 8/20/17 41/34/17 44/33/17
f 43/14/18 44/33/18 73/36/18 74/15/18
f 25/50/19 22/9/19 53/12/19 54/65/19
f 16/21/20 17/42/20 48/66/20 46/22/20
f 32/56/21 29/1/21 60/4/21 61/67/21
f 23/10/22 24/48/22 55/68/22 52/11/22
f 17/42/23 18/5/23 47/8/23 48/66/23
f 30/2/24 31/54/24 62/69/24 59/3/24
f 24/48/25 25/50/25 54/65/25 55/68/25
f 37/61/26 38/60/26 67/70/26 68/71/26
f 31/54/27 32/56/27 61/67/27 62/69/27
f 40/63/28 37/61/28 68/71/28 69/72/28
f 38/60/29 39/62/29 70/73/29 67/70/29
f 39/62/30 40/63/30 69/72/30 70/73/30
f 19/45/31 20/44/31 49/74/31 50/75/31
f 26/52/32 27/51/32 56/76/32 57/77/32
f 21/46/33 19/45/33 50/75/33 51/78/33
f 33/58/34 34/57/34 63/79/34 64/80/34
f 28/53/35 26/52/35 57/77/35 58/81/35
f 20/44/36 21/46/36 51/78/36 49/74/36
f 36/38/37 33/58/37 64/80/37 65/39/37
f 27/51/38 28/53/38 58/81/38 56/76/38
f 34/57/39 35/37/39 66/40/39 63/79/39
usemtl Faces
f 45/7/10 46/22/10 48/66/10 47/8/10
f 50/75/11 49/74/11 51/78/11
f 53/12/12 52/11/12 55/68/12 54/65/12
f 57/77/13 56/76/13 58/81/13
f 60/4/14 59/3/14 62/69/14 61/67/14
f 64/80/15 63/79/15 66/40/15 65/39/15
f 68/71/16 67/70/16 70/73/16 69/72/16
f 72/35/17 71/16/17 74/15/17 73/36/17
