# Blender v2.82 (sub 7) OBJ File: 'Models2.blend'
# www.blender.org
mtllib Artifact4.mtl
o Artifact.003_Cylinder.004
v 0.000000 -0.125000 -0.331764
v 0.000000 0.072664 -0.504130
v 0.126961 -0.125000 -0.306510
v 0.192922 0.072664 -0.465755
v 0.234593 -0.125000 -0.234593
v 0.356474 0.072664 -0.356474
v 0.306510 -0.125000 -0.126961
v 0.465755 0.072664 -0.192922
v 0.331764 -0.125000 0.000000
v 0.504130 0.072664 0.000000
v 0.306510 -0.125000 0.126961
v 0.465755 0.072664 0.192922
v 0.234593 -0.125000 0.234593
v 0.356474 0.072664 0.356474
v 0.126961 -0.125000 0.306510
v 0.192922 0.072664 0.465755
v 0.000000 -0.125000 0.331764
v 0.000000 0.072664 0.504130
v -0.126961 -0.125000 0.306510
v -0.192922 0.072664 0.465755
v -0.234593 -0.125000 0.234593
v -0.356473 0.072664 0.356474
v -0.306510 -0.125000 0.126961
v -0.465755 0.072664 0.192922
v -0.331764 -0.125000 0.000000
v -0.504130 0.072664 -0.000000
v -0.306510 -0.125000 -0.126961
v -0.465755 0.072664 -0.192922
v -0.234593 -0.125000 -0.234593
v -0.356473 0.072664 -0.356474
v -0.126961 -0.125000 -0.306510
v -0.192922 0.072664 -0.465755
v 0.155689 0.920976 -0.375867
v 0.000000 0.920976 -0.406835
v 0.287676 0.920976 -0.287676
v 0.375867 0.920976 -0.155689
v 0.406835 0.920976 0.000000
v 0.375867 0.920976 0.155689
v 0.287676 0.920976 0.287676
v 0.155689 0.920976 0.375867
v 0.000000 0.920976 0.406835
v -0.155689 0.920976 0.375867
v -0.287676 0.920976 0.287676
v -0.375867 0.920976 0.155689
v -0.406835 0.920976 -0.000000
v -0.375867 0.920976 -0.155689
v -0.287676 0.920976 -0.287676
v -0.155689 0.920976 -0.375867
v 0.078973 1.158224 -0.190658
v 0.000000 1.158224 -0.206366
v 0.145923 1.158224 -0.145923
v 0.190658 1.158224 -0.078973
v 0.206366 1.158224 0.000000
v 0.190658 1.158224 0.078973
v 0.145923 1.158224 0.145923
v 0.078973 1.158224 0.190658
v 0.000000 1.158224 0.206366
v -0.078973 1.158224 0.190658
v -0.145923 1.158224 0.145923
v -0.190658 1.158224 0.078973
v -0.206366 1.158224 -0.000000
v -0.190658 1.158224 -0.078973
v -0.145923 1.158224 -0.145923
v -0.078973 1.158224 -0.190658
v 0.060700 1.324858 -0.146544
v 0.000000 1.324858 -0.158618
v 0.112160 1.324858 -0.112160
v 0.146544 1.324858 -0.060700
v 0.158618 1.324858 0.000000
v 0.146544 1.324858 0.060700
v 0.112160 1.324858 0.112160
v 0.060701 1.324858 0.146544
v 0.000000 1.324858 0.158618
v -0.060700 1.324858 0.146544
v -0.112160 1.324858 0.112160
v -0.146544 1.324858 0.060700
v -0.158618 1.324858 -0.000000
v -0.146544 1.324858 -0.060701
v -0.112160 1.324858 -0.112160
v -0.060700 1.324858 -0.146544
v 0.059070 1.400109 -0.142609
v -0.000000 1.400109 -0.154358
v 0.109148 1.400109 -0.109148
v 0.142609 1.400109 -0.059070
v 0.154358 1.400109 0.000000
v 0.142609 1.400109 0.059070
v 0.109148 1.400109 0.109148
v 0.059070 1.400109 0.142609
v 0.000000 1.400109 0.154358
v -0.059070 1.400109 0.142609
v -0.109148 1.400109 0.109148
v -0.142609 1.400109 0.059070
v -0.154358 1.400109 -0.000000
v -0.142609 1.400109 -0.059070
v -0.109148 1.400109 -0.109148
v -0.059070 1.400109 -0.142609
v 0.082514 1.404482 -0.199206
v 0.000000 1.404482 -0.215619
v 0.152465 1.404482 -0.152465
v 0.199206 1.404482 -0.082514
v 0.215619 1.404482 0.000000
v 0.199206 1.404482 0.082514
v 0.152465 1.404482 0.152465
v 0.082514 1.404482 0.199206
v 0.000000 1.404482 0.215619
v -0.082514 1.404482 0.199206
v -0.152465 1.404482 0.152466
v -0.199206 1.404482 0.082514
v -0.215619 1.404482 -0.000000
v -0.199206 1.404482 -0.082514
v -0.152465 1.404482 -0.152466
v -0.082514 1.404482 -0.199206
v 0.043127 1.361693 -0.104117
v -0.000000 1.361693 -0.112696
v 0.079688 1.361693 -0.079688
v 0.104117 1.361693 -0.043127
v 0.112696 1.361693 0.000000
v 0.104117 1.361693 0.043127
v 0.079688 1.361693 0.079688
v 0.043127 1.361693 0.104117
v 0.000000 1.361693 0.112696
v -0.043127 1.361693 0.104117
v -0.079688 1.361693 0.079688
v -0.104117 1.361693 0.043127
v -0.112696 1.361693 -0.000000
v -0.104117 1.361693 -0.043127
v -0.079688 1.361693 -0.079688
v -0.043127 1.361693 -0.104117
v 0.059098 1.129536 -0.142675
v 0.000000 1.129536 -0.154431
v 0.109199 1.129536 -0.109199
v 0.142675 1.129536 -0.059098
v 0.154431 1.129536 0.000000
v 0.142675 1.129536 0.059098
v 0.109199 1.129536 0.109199
v 0.059098 1.129536 0.142675
v 0.000000 1.129536 0.154431
v -0.059098 1.129536 0.142675
v -0.109199 1.129536 0.109199
v -0.142675 1.129536 0.059098
v -0.154431 1.129536 -0.000000
v -0.142675 1.129536 -0.059098
v -0.109199 1.129536 -0.109199
v -0.059098 1.129536 -0.142675
vt 1.000000 0.500000
vt 1.000000 1.000000
vt 0.937500 1.000000
vt 0.937500 0.500000
vt 0.875000 1.000000
vt 0.875000 0.500000
vt 0.812500 1.000000
vt 0.812500 0.500000
vt 0.750000 1.000000
vt 0.750000 0.500000
vt 0.687500 1.000000
vt 0.687500 0.500000
vt 0.625000 1.000000
vt 0.625000 0.500000
vt 0.562500 1.000000
vt 0.562500 0.500000
vt 0.500000 1.000000
vt 0.500000 0.500000
vt 0.437500 1.000000
vt 0.437500 0.500000
vt 0.375000 1.000000
vt 0.375000 0.500000
vt 0.312500 1.000000
vt 0.312500 0.500000
vt 0.250000 1.000000
vt 0.250000 0.500000
vt 0.187500 1.000000
vt 0.187500 0.500000
vt 0.125000 1.000000
vt 0.125000 0.500000
vt 0.812500 1.000000
vt 0.750000 1.000000
vt 0.062500 1.000000
vt 0.062500 0.500000
vt 0.000000 1.000000
vt 0.000000 0.500000
vt 0.750000 0.490000
vt 0.841844 0.471731
vt 0.919706 0.419706
vt 0.971731 0.341844
vt 0.990000 0.250000
vt 0.971731 0.158156
vt 0.919706 0.080294
vt 0.841844 0.028269
vt 0.750000 0.010000
vt 0.658156 0.028269
vt 0.580294 0.080294
vt 0.528269 0.158156
vt 0.510000 0.250000
vt 0.528269 0.341844
vt 0.580294 0.419706
vt 0.658156 0.471731
vt 0.062500 1.000000
vt 0.125000 1.000000
vt 0.125000 1.000000
vt 0.062500 1.000000
vt 0.500000 1.000000
vt 0.437500 1.000000
vt 0.187500 1.000000
vt 0.937500 1.000000
vt 0.875000 1.000000
vt 0.625000 1.000000
vt 0.562500 1.000000
vt 0.312500 1.000000
vt 0.250000 1.000000
vt 0.687500 1.000000
vt 0.375000 1.000000
vt 1.000000 1.000000
vt 0.000000 1.000000
vt 0.187500 1.000000
vt 0.250000 1.000000
vt 0.250000 1.000000
vt 0.187500 1.000000
vt 0.562500 1.000000
vt 0.500000 1.000000
vt 1.000000 1.000000
vt 0.937500 1.000000
vt 0.000000 1.000000
vt 0.437500 1.000000
vt 0.875000 1.000000
vt 0.375000 1.000000
vt 0.812500 1.000000
vt 0.312500 1.000000
vt 0.750000 1.000000
vt 0.687500 1.000000
vt 0.625000 1.000000
vt 0.812500 1.000000
vt 0.875000 1.000000
vt 0.875000 1.000000
vt 0.812500 1.000000
vt 0.687500 1.000000
vt 0.625000 1.000000
vt 0.125000 1.000000
vt 0.562500 1.000000
vt 0.062500 1.000000
vt 0.500000 1.000000
vt 1.000000 1.000000
vt 0.937500 1.000000
vt 0.000000 1.000000
vt 0.437500 1.000000
vt 0.375000 1.000000
vt 0.312500 1.000000
vt 0.750000 1.000000
vt 0.085461 0.318154
vt 0.071905 0.250000
vt 0.071905 0.250000
vt 0.085461 0.318154
vt 0.375000 1.000000
vt 0.312500 1.000000
vt 0.750000 1.000000
vt 0.250000 1.000000
vt 0.687500 1.000000
vt 0.187500 1.000000
vt 0.625000 1.000000
vt 0.125000 1.000000
vt 0.562500 1.000000
vt 0.062500 1.000000
vt 0.500000 1.000000
vt 1.000000 1.000000
vt 0.937500 1.000000
vt 0.000000 1.000000
vt 0.437500 1.000000
vt 0.250000 0.428095
vt 0.318154 0.414539
vt 0.341844 0.471731
vt 0.250000 0.490000
vt 0.375932 0.375933
vt 0.419706 0.419706
vt 0.414539 0.318154
vt 0.471731 0.341844
vt 0.428095 0.250000
vt 0.490000 0.250000
vt 0.414539 0.181846
vt 0.471731 0.158156
vt 0.375932 0.124068
vt 0.419706 0.080294
vt 0.318154 0.085461
vt 0.341844 0.028269
vt 0.250000 0.071905
vt 0.250000 0.010000
vt 0.181846 0.085461
vt 0.158156 0.028269
vt 0.124068 0.124068
vt 0.080294 0.080294
vt 0.085461 0.181846
vt 0.028269 0.158156
vt 0.010000 0.250000
vt 0.028269 0.341844
vt 0.124068 0.375933
vt 0.080294 0.419706
vt 0.181846 0.414539
vt 0.158156 0.471731
vt 0.414539 0.318154
vt 0.375932 0.375933
vt 0.375932 0.375933
vt 0.414539 0.318154
vt 0.414539 0.181846
vt 0.375932 0.124068
vt 0.124068 0.375933
vt 0.318154 0.085461
vt 0.181846 0.414539
vt 0.250000 0.071905
vt 0.250000 0.428095
vt 0.318154 0.414539
vt 0.181846 0.085461
vt 0.124068 0.124068
vt 0.085461 0.181846
vt 0.428095 0.250000
vt 0.318154 0.414539
vt 0.250000 0.428095
vt 0.181846 0.414539
vt 0.124068 0.375933
vt 0.085461 0.318154
vt 0.071905 0.250000
vt 0.085461 0.181846
vt 0.124068 0.124068
vt 0.181846 0.085461
vt 0.250000 0.071905
vt 0.318154 0.085461
vt 0.375932 0.124068
vt 0.414539 0.181846
vt 0.428095 0.250000
vn 0.1483 -0.6500 -0.7454
vn 0.4222 -0.6500 -0.6319
vn 0.6319 -0.6500 -0.4222
vn 0.7454 -0.6500 -0.1483
vn 0.7454 -0.6500 0.1483
vn 0.6319 -0.6500 0.4222
vn 0.4222 -0.6500 0.6319
vn 0.1483 -0.6500 0.7454
vn -0.1483 -0.6500 0.7454
vn -0.4222 -0.6500 0.6319
vn -0.6319 -0.6500 0.4222
vn -0.7454 -0.6500 0.1483
vn -0.7454 -0.6500 -0.1483
vn -0.6319 -0.6500 -0.4222
vn 0.9746 0.1118 -0.1939
vn -0.4222 -0.6500 -0.6319
vn -0.1483 -0.6500 -0.7454
vn 0.0000 -1.0000 0.0000
vn -0.4278 0.6381 -0.6402
vn -0.1939 0.1118 0.9746
vn -0.8263 0.1118 -0.5521
vn 0.5521 0.1118 -0.8263
vn 0.5521 0.1118 0.8263
vn -0.9746 0.1118 0.1939
vn 0.9746 0.1118 0.1939
vn -0.5521 0.1118 0.8263
vn -0.5521 0.1118 -0.8263
vn 0.8263 0.1118 -0.5521
vn 0.1939 0.1118 0.9746
vn 0.1939 0.1118 -0.9746
vn -0.9746 0.1118 -0.1939
vn 0.8263 0.1118 0.5521
vn -0.8263 0.1118 0.5521
vn -0.1939 0.1118 -0.9746
vn -0.9442 0.2706 -0.1878
vn 0.1502 0.6381 0.7552
vn 0.1502 0.6381 -0.7552
vn -0.1502 0.6381 -0.7552
vn -0.1502 0.6381 0.7552
vn 0.4278 0.6381 -0.6402
vn -0.4278 0.6381 0.6402
vn 0.6402 0.6381 -0.4278
vn -0.6402 0.6381 0.4278
vn 0.7552 0.6381 -0.1502
vn -0.7552 0.6381 0.1502
vn 0.7552 0.6381 0.1502
vn -0.7552 0.6381 -0.1502
vn 0.6402 0.6381 0.4278
vn -0.6402 0.6381 -0.4278
vn 0.4278 0.6381 0.6402
vn 0.6805 -0.5746 -0.4547
vn 0.8005 0.2706 0.5348
vn -0.8005 0.2706 -0.5348
vn 0.5348 0.2706 0.8005
vn -0.5348 0.2706 -0.8005
vn 0.1878 0.2706 0.9442
vn 0.1878 0.2706 -0.9442
vn -0.1878 0.2706 -0.9442
vn -0.1878 0.2706 0.9442
vn 0.5348 0.2706 -0.8005
vn -0.5348 0.2706 0.8005
vn 0.8005 0.2706 -0.5348
vn -0.8005 0.2706 0.5348
vn 0.9442 0.2706 -0.1878
vn -0.9442 0.2706 0.1878
vn 0.9442 0.2706 0.1878
vn 0.6718 0.7286 0.1336
vn -0.6805 -0.5746 0.4547
vn 0.8027 -0.5746 -0.1597
vn -0.8027 -0.5746 0.1597
vn 0.8027 -0.5746 0.1597
vn -0.8027 -0.5746 -0.1597
vn 0.6805 -0.5746 0.4547
vn -0.6805 -0.5746 -0.4547
vn 0.4547 -0.5746 0.6805
vn -0.4547 -0.5746 -0.6805
vn 0.1597 -0.5746 0.8027
vn 0.1597 -0.5746 -0.8027
vn -0.1597 -0.5746 -0.8027
vn -0.1597 -0.5746 0.8027
vn 0.4547 -0.5746 -0.6805
vn -0.4547 -0.5746 0.6805
vn -0.0142 0.9974 0.0712
vn -0.0403 0.9974 0.0604
vn -0.0604 0.9974 0.0403
vn -0.0712 0.9974 0.0142
vn -0.0712 0.9974 -0.0142
vn -0.0604 0.9974 -0.0403
vn -0.0403 0.9974 -0.0604
vn -0.0142 0.9974 -0.0712
vn 0.0142 0.9974 -0.0712
vn 0.0403 0.9974 -0.0604
vn 0.0604 0.9974 -0.0403
vn 0.0712 0.9974 -0.0142
vn 0.0712 0.9974 0.0142
vn 0.0604 0.9974 0.0403
vn 0.0403 0.9974 0.0604
vn 0.0142 0.9974 0.0712
vn -0.8188 -0.1736 0.5471
vn -0.5695 0.7286 -0.3805
vn 0.5695 0.7286 0.3805
vn -0.3805 0.7286 -0.5695
vn 0.3805 0.7286 0.5695
vn -0.1336 0.7286 -0.6718
vn -0.1336 0.7286 0.6718
vn 0.1336 0.7286 0.6718
vn 0.1336 0.7286 -0.6718
vn -0.3805 0.7286 0.5695
vn 0.3805 0.7286 -0.5695
vn -0.5695 0.7286 0.3805
vn 0.5695 0.7286 -0.3805
vn -0.6718 0.7286 0.1336
vn 0.6718 0.7286 -0.1336
vn -0.6718 0.7286 -0.1336
vn 0.0000 1.0000 0.0000
vn 0.8188 -0.1736 -0.5471
vn -0.9659 -0.1736 0.1921
vn 0.9659 -0.1736 -0.1921
vn -0.9659 -0.1736 -0.1921
vn 0.9659 -0.1736 0.1921
vn -0.8188 -0.1736 -0.5471
vn 0.8188 -0.1736 0.5471
vn -0.5471 -0.1736 -0.8188
vn 0.5471 -0.1736 0.8188
vn -0.1921 -0.1736 -0.9659
vn -0.1921 -0.1736 0.9659
vn 0.1921 -0.1736 0.9659
vn 0.1921 -0.1736 -0.9659
vn -0.5471 -0.1736 0.8188
vn 0.5471 -0.1736 -0.8188
usemtl None
s off
f 1/1/1 2/2/1 4/3/1 3/4/1
f 3/4/2 4/3/2 6/5/2 5/6/2
f 5/6/3 6/5/3 8/7/3 7/8/3
f 7/8/4 8/7/4 10/9/4 9/10/4
f 9/10/5 10/9/5 12/11/5 11/12/5
f 11/12/6 12/11/6 14/13/6 13/14/6
f 13/14/7 14/13/7 16/15/7 15/16/7
f 15/16/8 16/15/8 18/17/8 17/18/8
f 17/18/9 18/17/9 20/19/9 19/20/9
f 19/20/10 20/19/10 22/21/10 21/22/10
f 21/22/11 22/21/11 24/23/11 23/24/11
f 23/24/12 24/23/12 26/25/12 25/26/12
f 25/26/13 26/25/13 28/27/13 27/28/13
f 27/28/14 28/27/14 30/29/14 29/30/14
f 10/9/15 8/7/15 36/31/15 37/32/15
f 29/30/16 30/29/16 32/33/16 31/34/16
f 31/34/17 32/33/17 2/35/17 1/36/17
f 1/37/18 3/38/18 5/39/18 7/40/18 9/41/18 11/42/18 13/43/18 15/44/18 17/45/18 19/46/18 21/47/18 23/48/18 25/49/18 27/50/18 29/51/18 31/52/18
f 48/53/19 47/54/19 63/55/19 64/56/19
f 20/19/20 18/17/20 41/57/20 42/58/20
f 30/29/21 28/27/21 46/59/21 47/54/21
f 6/5/22 4/3/22 33/60/22 35/61/22
f 16/15/23 14/13/23 39/62/23 40/63/23
f 26/25/24 24/23/24 44/64/24 45/65/24
f 12/11/25 10/9/25 37/32/25 38/66/25
f 22/21/26 20/19/26 42/58/26 43/67/26
f 32/33/27 30/29/27 47/54/27 48/53/27
f 8/7/28 6/5/28 35/61/28 36/31/28
f 18/17/29 16/15/29 40/63/29 41/57/29
f 4/3/30 2/2/30 34/68/30 33/60/30
f 28/27/31 26/25/31 45/65/31 46/59/31
f 14/13/32 12/11/32 38/66/32 39/62/32
f 24/23/33 22/21/33 43/67/33 44/64/33
f 2/35/34 32/33/34 48/53/34 34/69/34
f 62/70/35 61/71/35 77/72/35 78/73/35
f 41/57/36 40/63/36 56/74/36 57/75/36
f 33/60/37 34/68/37 50/76/37 49/77/37
f 34/69/38 48/53/38 64/56/38 50/78/38
f 42/58/39 41/57/39 57/75/39 58/79/39
f 35/61/40 33/60/40 49/77/40 51/80/40
f 43/67/41 42/58/41 58/79/41 59/81/41
f 36/31/42 35/61/42 51/80/42 52/82/42
f 44/64/43 43/67/43 59/81/43 60/83/43
f 37/32/44 36/31/44 52/82/44 53/84/44
f 45/65/45 44/64/45 60/83/45 61/71/45
f 38/66/46 37/32/46 53/84/46 54/85/46
f 46/59/47 45/65/47 61/71/47 62/70/47
f 39/62/48 38/66/48 54/85/48 55/86/48
f 47/54/49 46/59/49 62/70/49 63/55/49
f 40/63/50 39/62/50 55/86/50 56/74/50
f 68/87/51 67/88/51 99/89/51 100/90/51
f 55/86/52 54/85/52 70/91/52 71/92/52
f 63/55/53 62/70/53 78/73/53 79/93/53
f 56/74/54 55/86/54 71/92/54 72/94/54
f 64/56/55 63/55/55 79/93/55 80/95/55
f 57/75/56 56/74/56 72/94/56 73/96/56
f 49/77/57 50/76/57 66/97/57 65/98/57
f 50/78/58 64/56/58 80/95/58 66/99/58
f 58/79/59 57/75/59 73/96/59 74/100/59
f 51/80/60 49/77/60 65/98/60 67/88/60
f 59/81/61 58/79/61 74/100/61 75/101/61
f 52/82/62 51/80/62 67/88/62 68/87/62
f 60/83/63 59/81/63 75/101/63 76/102/63
f 53/84/64 52/82/64 68/87/64 69/103/64
f 61/71/65 60/83/65 76/102/65 77/72/65
f 54/85/66 53/84/66 69/103/66 70/91/66
f 94/104/67 93/105/67 125/106/67 126/107/67
f 76/102/68 75/101/68 107/108/68 108/109/68
f 69/103/69 68/87/69 100/90/69 101/110/69
f 77/72/70 76/102/70 108/109/70 109/111/70
f 70/91/71 69/103/71 101/110/71 102/112/71
f 78/73/72 77/72/72 109/111/72 110/113/72
f 71/92/73 70/91/73 102/112/73 103/114/73
f 79/93/74 78/73/74 110/113/74 111/115/74
f 72/94/75 71/92/75 103/114/75 104/116/75
f 80/95/76 79/93/76 111/115/76 112/117/76
f 73/96/77 72/94/77 104/116/77 105/118/77
f 65/98/78 66/97/78 98/119/78 97/120/78
f 66/99/79 80/95/79 112/117/79 98/121/79
f 74/100/80 73/96/80 105/118/80 106/122/80
f 67/88/81 65/98/81 97/120/81 99/89/81
f 75/101/82 74/100/82 106/122/82 107/108/82
f 82/123/83 81/124/83 97/125/83 98/126/83
f 81/124/84 83/127/84 99/128/84 97/125/84
f 83/127/85 84/129/85 100/130/85 99/128/85
f 84/129/86 85/131/86 101/132/86 100/130/86
f 85/131/87 86/133/87 102/134/87 101/132/87
f 86/133/88 87/135/88 103/136/88 102/134/88
f 87/135/89 88/137/89 104/138/89 103/136/89
f 88/137/90 89/139/90 105/140/90 104/138/90
f 89/139/91 90/141/91 106/142/91 105/140/91
f 90/141/92 91/143/92 107/144/92 106/142/92
f 91/143/93 92/145/93 108/146/93 107/144/93
f 92/145/94 93/105/94 109/147/94 108/146/94
f 93/105/95 94/104/95 110/148/95 109/147/95
f 94/104/96 95/149/96 111/150/96 110/148/96
f 95/149/97 96/151/97 112/152/97 111/150/97
f 96/151/98 82/123/98 98/126/98 112/152/98
f 116/153/99 115/154/99 131/155/99 132/156/99
f 87/135/100 86/133/100 118/157/100 119/158/100
f 95/149/101 94/104/101 126/107/101 127/159/101
f 88/137/102 87/135/102 119/158/102 120/160/102
f 96/151/103 95/149/103 127/159/103 128/161/103
f 89/139/104 88/137/104 120/160/104 121/162/104
f 81/124/105 82/123/105 114/163/105 113/164/105
f 82/123/106 96/151/106 128/161/106 114/163/106
f 90/141/107 89/139/107 121/162/107 122/165/107
f 83/127/108 81/124/108 113/164/108 115/154/108
f 91/143/109 90/141/109 122/165/109 123/166/109
f 84/129/110 83/127/110 115/154/110 116/153/110
f 92/145/111 91/143/111 123/166/111 124/167/111
f 85/131/112 84/129/112 116/153/112 117/168/112
f 93/105/113 92/145/113 124/167/113 125/106/113
f 86/133/114 85/131/114 117/168/114 118/157/114
f 129/169/115 130/170/115 144/171/115 143/172/115 142/173/115 141/174/115 140/175/115 139/176/115 138/177/115 137/178/115 136/179/115 135/180/115 134/181/115 133/182/115 132/156/115 131/155/115
f 124/167/116 123/166/116 139/176/116 140/175/116
f 117/168/117 116/153/117 132/156/117 133/182/117
f 125/106/118 124/167/118 140/175/118 141/174/118
f 118/157/119 117/168/119 133/182/119 134/181/119
f 126/107/120 125/106/120 141/174/120 142/173/120
f 119/158/121 118/157/121 134/181/121 135/180/121
f 127/159/122 126/107/122 142/173/122 143/172/122
f 120/160/123 119/158/123 135/180/123 136/179/123
f 128/161/124 127/159/124 143/172/124 144/171/124
f 121/162/125 120/160/125 136/179/125 137/178/125
f 113/164/126 114/163/126 130/170/126 129/169/126
f 114/163/127 128/161/127 144/171/127 130/170/127
f 122/165/128 121/162/128 137/178/128 138/177/128
f 115/154/129 113/164/129 129/169/129 131/155/129
f 123/166/130 122/165/130 138/177/130 139/176/130
