# Blender v2.82 (sub 7) OBJ File: 'Models2.blend'
# www.blender.org
mtllib Artifact1.mtl
o Artifact_Cylinder.001
v 0.000000 -0.125000 -0.500000
v -0.000000 0.125000 -0.637609
v 0.191342 -0.125000 -0.461940
v 0.244002 0.125000 -0.589074
v 0.353553 -0.125000 -0.353553
v 0.450858 0.125000 -0.450858
v 0.461940 -0.125000 -0.191342
v 0.589074 0.125000 -0.244002
v 0.500000 -0.125000 0.000000
v 0.637609 0.125000 0.000000
v 0.461940 -0.125000 0.191342
v 0.589074 0.125000 0.244003
v 0.353553 -0.125000 0.353553
v 0.450858 0.125000 0.450858
v 0.191342 -0.125000 0.461940
v 0.244003 0.125000 0.589074
v 0.000000 -0.125000 0.500000
v 0.000000 0.125000 0.637609
v -0.191342 -0.125000 0.461940
v -0.244002 0.125000 0.589074
v -0.353553 -0.125000 0.353554
v -0.450858 0.125000 0.450858
v -0.461940 -0.125000 0.191342
v -0.589074 0.125000 0.244003
v -0.500000 -0.125000 -0.000000
v -0.637609 0.125000 -0.000000
v -0.461940 -0.125000 -0.191342
v -0.589074 0.125000 -0.244003
v -0.353553 -0.125000 -0.353554
v -0.450858 0.125000 -0.450858
v -0.191341 -0.125000 -0.461940
v -0.244002 0.125000 -0.589074
v 0.244002 0.754807 -0.589074
v -0.000000 0.754807 -0.637609
v 0.450858 0.754807 -0.450858
v 0.589074 0.754807 -0.244002
v 0.637609 0.754807 0.000000
v 0.589074 0.754807 0.244003
v 0.450858 0.754807 0.450858
v 0.244003 0.754807 0.589074
v 0.000000 0.754807 0.637609
v -0.244002 0.754807 0.589074
v -0.450858 0.754807 0.450858
v -0.589074 0.754807 0.244003
v -0.637609 0.754807 -0.000000
v -0.589074 0.754807 -0.244003
v -0.450858 0.754807 -0.450858
v -0.244002 0.754807 -0.589074
v 0.199882 0.989441 -0.482558
v -0.000000 0.989441 -0.522317
v 0.369334 0.989441 -0.369334
v 0.482558 0.989441 -0.199882
v 0.522317 0.989441 0.000000
v 0.482558 0.989441 0.199882
v 0.369334 0.989441 0.369334
v 0.199882 0.989441 0.482558
v 0.000000 0.989441 0.522317
v -0.199882 0.989441 0.482558
v -0.369334 0.989441 0.369334
v -0.482558 0.989441 0.199882
v -0.522317 0.989441 -0.000000
v -0.482558 0.989441 -0.199882
v -0.369334 0.989441 -0.369334
v -0.199882 0.989441 -0.482558
v 0.199882 1.352191 -0.482558
v 0.000000 1.352191 -0.522317
v 0.369334 1.352191 -0.369334
v 0.482558 1.352191 -0.199882
v 0.522317 1.352191 0.000000
v 0.482558 1.352191 0.199882
v 0.369334 1.352191 0.369334
v 0.199882 1.352191 0.482558
v 0.000000 1.352191 0.522317
v -0.199882 1.352191 0.482558
v -0.369334 1.352191 0.369334
v -0.482558 1.352191 0.199882
v -0.522317 1.352191 -0.000000
v -0.482558 1.352191 -0.199882
v -0.369334 1.352191 -0.369334
v -0.199882 1.352191 -0.482558
v 0.180935 1.537175 -0.436815
v -0.000000 1.537175 -0.472805
v 0.334323 1.537175 -0.334323
v 0.436815 1.537175 -0.180935
v 0.472805 1.537175 0.000000
v 0.436815 1.537175 0.180935
v 0.334323 1.537175 0.334323
v 0.180935 1.537175 0.436815
v 0.000000 1.537175 0.472805
v -0.180934 1.537175 0.436815
v -0.334323 1.537175 0.334324
v -0.436815 1.537175 0.180935
v -0.472805 1.537175 -0.000000
v -0.436815 1.537175 -0.180935
v -0.334323 1.537175 -0.334324
v -0.180934 1.537175 -0.436815
v 0.243826 1.537175 -0.588648
v -0.000000 1.537175 -0.637148
v 0.450532 1.537175 -0.450532
v 0.588648 1.537175 -0.243826
v 0.637148 1.537175 0.000000
v 0.588648 1.537175 0.243826
v 0.450532 1.537175 0.450532
v 0.243826 1.537175 0.588648
v 0.000000 1.537175 0.637148
v -0.243826 1.537175 0.588648
v -0.450532 1.537175 0.450532
v -0.588648 1.537175 0.243826
v -0.637148 1.537175 -0.000000
v -0.588648 1.537175 -0.243826
v -0.450532 1.537175 -0.450532
v -0.243826 1.537175 -0.588648
v 0.118587 1.416891 -0.286294
v -0.000000 1.416891 -0.309882
v 0.219120 1.416891 -0.219120
v 0.286294 1.416891 -0.118587
v 0.309882 1.416891 0.000000
v 0.286294 1.416891 0.118587
v 0.219120 1.416891 0.219120
v 0.118587 1.416891 0.286294
v 0.000000 1.416891 0.309882
v -0.118587 1.416891 0.286294
v -0.219120 1.416891 0.219120
v -0.286294 1.416891 0.118587
v -0.309882 1.416891 -0.000000
v -0.286294 1.416891 -0.118587
v -0.219120 1.416891 -0.219120
v -0.118587 1.416891 -0.286294
v 0.118587 0.986032 -0.286294
v 0.000000 0.986032 -0.309882
v 0.219120 0.986032 -0.219120
v 0.286294 0.986032 -0.118587
v 0.309882 0.986032 0.000000
v 0.286294 0.986032 0.118587
v 0.219120 0.986032 0.219120
v 0.118587 0.986032 0.286294
v 0.000000 0.986032 0.309882
v -0.118587 0.986032 0.286294
v -0.219120 0.986032 0.219120
v -0.286294 0.986032 0.118587
v -0.309882 0.986032 -0.000000
v -0.286294 0.986032 -0.118587
v -0.219120 0.986032 -0.219120
v -0.118587 0.986032 -0.286294
vt 1.000000 0.500000
vt 1.000000 1.000000
vt 0.937500 1.000000
vt 0.937500 0.500000
vt 0.875000 1.000000
vt 0.875000 0.500000
vt 0.812500 1.000000
vt 0.812500 0.500000
vt 0.750000 1.000000
vt 0.750000 0.500000
vt 0.687500 1.000000
vt 0.687500 0.500000
vt 0.625000 1.000000
vt 0.625000 0.500000
vt 0.562500 1.000000
vt 0.562500 0.500000
vt 0.500000 1.000000
vt 0.500000 0.500000
vt 0.437500 1.000000
vt 0.437500 0.500000
vt 0.375000 1.000000
vt 0.375000 0.500000
vt 0.312500 1.000000
vt 0.312500 0.500000
vt 0.250000 1.000000
vt 0.250000 0.500000
vt 0.187500 1.000000
vt 0.187500 0.500000
vt 0.125000 1.000000
vt 0.125000 0.500000
vt 0.812500 1.000000
vt 0.750000 1.000000
vt 0.062500 1.000000
vt 0.062500 0.500000
vt 0.000000 1.000000
vt 0.000000 0.500000
vt 0.750000 0.490000
vt 0.841844 0.471731
vt 0.919706 0.419706
vt 0.971731 0.341844
vt 0.990000 0.250000
vt 0.971731 0.158156
vt 0.919706 0.080294
vt 0.841844 0.028269
vt 0.750000 0.010000
vt 0.658156 0.028269
vt 0.580294 0.080294
vt 0.528269 0.158156
vt 0.510000 0.250000
vt 0.528269 0.341844
vt 0.580294 0.419706
vt 0.658156 0.471731
vt 0.062500 1.000000
vt 0.125000 1.000000
vt 0.125000 1.000000
vt 0.062500 1.000000
vt 0.500000 1.000000
vt 0.437500 1.000000
vt 0.187500 1.000000
vt 0.937500 1.000000
vt 0.875000 1.000000
vt 0.625000 1.000000
vt 0.562500 1.000000
vt 0.312500 1.000000
vt 0.250000 1.000000
vt 0.687500 1.000000
vt 0.375000 1.000000
vt 1.000000 1.000000
vt 0.000000 1.000000
vt 0.187500 1.000000
vt 0.250000 1.000000
vt 0.250000 1.000000
vt 0.187500 1.000000
vt 0.562500 1.000000
vt 0.500000 1.000000
vt 1.000000 1.000000
vt 0.937500 1.000000
vt 0.000000 1.000000
vt 0.437500 1.000000
vt 0.875000 1.000000
vt 0.375000 1.000000
vt 0.812500 1.000000
vt 0.312500 1.000000
vt 0.750000 1.000000
vt 0.687500 1.000000
vt 0.625000 1.000000
vt 0.812500 1.000000
vt 0.875000 1.000000
vt 0.875000 1.000000
vt 0.812500 1.000000
vt 0.687500 1.000000
vt 0.625000 1.000000
vt 0.125000 1.000000
vt 0.562500 1.000000
vt 0.062500 1.000000
vt 0.500000 1.000000
vt 1.000000 1.000000
vt 0.937500 1.000000
vt 0.000000 1.000000
vt 0.437500 1.000000
vt 0.375000 1.000000
vt 0.312500 1.000000
vt 0.750000 1.000000
vt 0.085461 0.318154
vt 0.071905 0.250000
vt 0.071905 0.250000
vt 0.085461 0.318154
vt 0.375000 1.000000
vt 0.312500 1.000000
vt 0.750000 1.000000
vt 0.250000 1.000000
vt 0.687500 1.000000
vt 0.187500 1.000000
vt 0.625000 1.000000
vt 0.125000 1.000000
vt 0.562500 1.000000
vt 0.062500 1.000000
vt 0.500000 1.000000
vt 1.000000 1.000000
vt 0.937500 1.000000
vt 0.000000 1.000000
vt 0.437500 1.000000
vt 0.250000 0.428095
vt 0.318154 0.414539
vt 0.341844 0.471731
vt 0.250000 0.490000
vt 0.375932 0.375933
vt 0.419706 0.419706
vt 0.414539 0.318154
vt 0.471731 0.341844
vt 0.428095 0.250000
vt 0.490000 0.250000
vt 0.414539 0.181846
vt 0.471731 0.158156
vt 0.375932 0.124068
vt 0.419706 0.080294
vt 0.318154 0.085461
vt 0.341844 0.028269
vt 0.250000 0.071905
vt 0.250000 0.010000
vt 0.181846 0.085461
vt 0.158156 0.028269
vt 0.124068 0.124068
vt 0.080294 0.080294
vt 0.085461 0.181846
vt 0.028269 0.158156
vt 0.010000 0.250000
vt 0.028269 0.341844
vt 0.124068 0.375933
vt 0.080294 0.419706
vt 0.181846 0.414539
vt 0.158156 0.471731
vt 0.414539 0.318154
vt 0.375932 0.375933
vt 0.375932 0.375933
vt 0.414539 0.318154
vt 0.414539 0.181846
vt 0.375932 0.124068
vt 0.124068 0.375933
vt 0.318154 0.085461
vt 0.181846 0.414539
vt 0.250000 0.071905
vt 0.250000 0.428095
vt 0.318154 0.414539
vt 0.181846 0.085461
vt 0.124068 0.124068
vt 0.085461 0.181846
vt 0.428095 0.250000
vt 0.318154 0.414539
vt 0.250000 0.428095
vt 0.181846 0.414539
vt 0.124068 0.375933
vt 0.085461 0.318154
vt 0.071905 0.250000
vt 0.085461 0.181846
vt 0.124068 0.124068
vt 0.181846 0.085461
vt 0.250000 0.071905
vt 0.318154 0.085461
vt 0.375932 0.124068
vt 0.414539 0.181846
vt 0.428095 0.250000
vn 0.1717 -0.4751 -0.8630
vn 0.4889 -0.4751 -0.7317
vn 0.7317 -0.4751 -0.4889
vn 0.8630 -0.4751 -0.1717
vn 0.8630 -0.4751 0.1717
vn 0.7317 -0.4751 0.4889
vn 0.4889 -0.4751 0.7317
vn 0.1717 -0.4751 0.8630
vn -0.1717 -0.4751 0.8630
vn -0.4889 -0.4751 0.7317
vn -0.7317 -0.4751 0.4889
vn -0.8630 -0.4751 0.1717
vn -0.8630 -0.4751 -0.1717
vn -0.7317 -0.4751 -0.4889
vn 0.9808 0.0000 -0.1951
vn -0.4889 -0.4751 -0.7317
vn -0.1717 -0.4751 -0.8630
vn 0.0000 -1.0000 -0.0000
vn -0.5005 0.4341 -0.7490
vn -0.1951 0.0000 0.9808
vn -0.8315 0.0000 -0.5556
vn 0.5556 0.0000 -0.8315
vn 0.5556 0.0000 0.8315
vn -0.9808 0.0000 0.1951
vn 0.9808 0.0000 0.1951
vn -0.5556 0.0000 0.8315
vn -0.5556 0.0000 -0.8315
vn 0.8315 0.0000 -0.5556
vn 0.1951 0.0000 0.9808
vn 0.1951 0.0000 -0.9808
vn -0.9808 0.0000 -0.1951
vn 0.8315 0.0000 0.5556
vn -0.8315 0.0000 0.5556
vn -0.1951 -0.0000 -0.9808
vn 0.1757 0.4341 0.8835
vn 0.1757 0.4341 -0.8835
vn -0.1757 0.4341 -0.8835
vn -0.1757 0.4341 0.8835
vn 0.5005 0.4341 -0.7490
vn -0.5005 0.4341 0.7490
vn 0.7490 0.4341 -0.5005
vn -0.7490 0.4341 0.5005
vn 0.8835 0.4341 -0.1757
vn -0.8835 0.4341 0.1757
vn 0.8835 0.4341 0.1757
vn -0.8835 0.4341 -0.1757
vn 0.7490 0.4341 0.5005
vn -0.7490 0.4341 -0.5005
vn 0.5005 0.4341 0.7490
vn 0.7102 -0.5200 -0.4745
vn 0.5899 0.7989 0.1173
vn -0.7102 -0.5200 0.4745
vn 0.8377 -0.5200 -0.1666
vn -0.8377 -0.5200 0.1666
vn 0.8377 -0.5200 0.1666
vn -0.8377 -0.5200 -0.1666
vn 0.7102 -0.5200 0.4745
vn -0.7102 -0.5200 -0.4745
vn 0.4745 -0.5200 0.7102
vn -0.4745 -0.5200 -0.7102
vn 0.1666 -0.5200 0.8377
vn 0.1666 -0.5200 -0.8377
vn -0.1666 -0.5200 -0.8377
vn -0.1666 -0.5200 0.8377
vn 0.4745 -0.5200 -0.7102
vn -0.4745 -0.5200 0.7102
vn 0.0000 1.0000 0.0000
vn -0.5001 0.7989 -0.3341
vn 0.5001 0.7989 0.3341
vn -0.3341 0.7989 -0.5001
vn 0.3341 0.7989 0.5001
vn -0.1173 0.7989 -0.5898
vn -0.1173 0.7989 0.5899
vn 0.1173 0.7989 0.5899
vn 0.1173 0.7989 -0.5899
vn -0.3341 0.7989 0.5001
vn 0.3341 0.7989 -0.5001
vn -0.5001 0.7989 0.3341
vn 0.5001 0.7989 -0.3341
vn -0.5899 0.7989 0.1173
vn 0.5899 0.7989 -0.1173
vn -0.5899 0.7989 -0.1173
usemtl None
s off
f 1/1/1 2/2/1 4/3/1 3/4/1
f 3/4/2 4/3/2 6/5/2 5/6/2
f 5/6/3 6/5/3 8/7/3 7/8/3
f 7/8/4 8/7/4 10/9/4 9/10/4
f 9/10/5 10/9/5 12/11/5 11/12/5
f 11/12/6 12/11/6 14/13/6 13/14/6
f 13/14/7 14/13/7 16/15/7 15/16/7
f 15/16/8 16/15/8 18/17/8 17/18/8
f 17/18/9 18/17/9 20/19/9 19/20/9
f 19/20/10 20/19/10 22/21/10 21/22/10
f 21/22/11 22/21/11 24/23/11 23/24/11
f 23/24/12 24/23/12 26/25/12 25/26/12
f 25/26/13 26/25/13 28/27/13 27/28/13
f 27/28/14 28/27/14 30/29/14 29/30/14
f 10/9/15 8/7/15 36/31/15 37/32/15
f 29/30/16 30/29/16 32/33/16 31/34/16
f 31/34/17 32/33/17 2/35/17 1/36/17
f 1/37/18 3/38/18 5/39/18 7/40/18 9/41/18 11/42/18 13/43/18 15/44/18 17/45/18 19/46/18 21/47/18 23/48/18 25/49/18 27/50/18 29/51/18 31/52/18
f 48/53/19 47/54/19 63/55/19 64/56/19
f 20/19/20 18/17/20 41/57/20 42/58/20
f 30/29/21 28/27/21 46/59/21 47/54/21
f 6/5/22 4/3/22 33/60/22 35/61/22
f 16/15/23 14/13/23 39/62/23 40/63/23
f 26/25/24 24/23/24 44/64/24 45/65/24
f 12/11/25 10/9/25 37/32/25 38/66/25
f 22/21/26 20/19/26 42/58/26 43/67/26
f 32/33/27 30/29/27 47/54/27 48/53/27
f 8/7/28 6/5/28 35/61/28 36/31/28
f 18/17/29 16/15/29 40/63/29 41/57/29
f 4/3/30 2/2/30 34/68/30 33/60/30
f 28/27/31 26/25/31 45/65/31 46/59/31
f 14/13/32 12/11/32 38/66/32 39/62/32
f 24/23/33 22/21/33 43/67/33 44/64/33
f 2/35/34 32/33/34 48/53/34 34/69/34
f 62/70/31 61/71/31 77/72/31 78/73/31
f 41/57/35 40/63/35 56/74/35 57/75/35
f 33/60/36 34/68/36 50/76/36 49/77/36
f 34/69/37 48/53/37 64/56/37 50/78/37
f 42/58/38 41/57/38 57/75/38 58/79/38
f 35/61/39 33/60/39 49/77/39 51/80/39
f 43/67/40 42/58/40 58/79/40 59/81/40
f 36/31/41 35/61/41 51/80/41 52/82/41
f 44/64/42 43/67/42 59/81/42 60/83/42
f 37/32/43 36/31/43 52/82/43 53/84/43
f 45/65/44 44/64/44 60/83/44 61/71/44
f 38/66/45 37/32/45 53/84/45 54/85/45
f 46/59/46 45/65/46 61/71/46 62/70/46
f 39/62/47 38/66/47 54/85/47 55/86/47
f 47/54/48 46/59/48 62/70/48 63/55/48
f 40/63/49 39/62/49 55/86/49 56/74/49
f 68/87/50 67/88/50 99/89/50 100/90/50
f 55/86/32 54/85/32 70/91/32 71/92/32
f 63/55/21 62/70/21 78/73/21 79/93/21
f 56/74/23 55/86/23 71/92/23 72/94/23
f 64/56/27 63/55/27 79/93/27 80/95/27
f 57/75/29 56/74/29 72/94/29 73/96/29
f 49/77/30 50/76/30 66/97/30 65/98/30
f 50/78/34 64/56/34 80/95/34 66/99/34
f 58/79/20 57/75/20 73/96/20 74/100/20
f 51/80/22 49/77/22 65/98/22 67/88/22
f 59/81/26 58/79/26 74/100/26 75/101/26
f 52/82/28 51/80/28 67/88/28 68/87/28
f 60/83/33 59/81/33 75/101/33 76/102/33
f 53/84/15 52/82/15 68/87/15 69/103/15
f 61/71/24 60/83/24 76/102/24 77/72/24
f 54/85/25 53/84/25 69/103/25 70/91/25
f 94/104/51 93/105/51 125/106/51 126/107/51
f 76/102/52 75/101/52 107/108/52 108/109/52
f 69/103/53 68/87/53 100/90/53 101/110/53
f 77/72/54 76/102/54 108/109/54 109/111/54
f 70/91/55 69/103/55 101/110/55 102/112/55
f 78/73/56 77/72/56 109/111/56 110/113/56
f 71/92/57 70/91/57 102/112/57 103/114/57
f 79/93/58 78/73/58 110/113/58 111/115/58
f 72/94/59 71/92/59 103/114/59 104/116/59
f 80/95/60 79/93/60 111/115/60 112/117/60
f 73/96/61 72/94/61 104/116/61 105/118/61
f 65/98/62 66/97/62 98/119/62 97/120/62
f 66/99/63 80/95/63 112/117/63 98/121/63
f 74/100/64 73/96/64 105/118/64 106/122/64
f 67/88/65 65/98/65 97/120/65 99/89/65
f 75/101/66 74/100/66 106/122/66 107/108/66
f 82/123/67 81/124/67 97/125/67 98/126/67
f 81/124/67 83/127/67 99/128/67 97/125/67
f 83/127/67 84/129/67 100/130/67 99/128/67
f 84/129/67 85/131/67 101/132/67 100/130/67
f 85/131/67 86/133/67 102/134/67 101/132/67
f 86/133/67 87/135/67 103/136/67 102/134/67
f 87/135/67 88/137/67 104/138/67 103/136/67
f 88/137/67 89/139/67 105/140/67 104/138/67
f 89/139/67 90/141/67 106/142/67 105/140/67
f 90/141/67 91/143/67 107/144/67 106/142/67
f 91/143/67 92/145/67 108/146/67 107/144/67
f 92/145/67 93/105/67 109/147/67 108/146/67
f 93/105/67 94/104/67 110/148/67 109/147/67
f 94/104/67 95/149/67 111/150/67 110/148/67
f 95/149/67 96/151/67 112/152/67 111/150/67
f 96/151/67 82/123/67 98/126/67 112/152/67
f 116/153/33 115/154/33 131/155/33 132/156/33
f 87/135/68 86/133/68 118/157/68 119/158/68
f 95/149/69 94/104/69 126/107/69 127/159/69
f 88/137/70 87/135/70 119/158/70 120/160/70
f 96/151/71 95/149/71 127/159/71 128/161/71
f 89/139/72 88/137/72 120/160/72 121/162/72
f 81/124/73 82/123/73 114/163/73 113/164/73
f 82/123/74 96/151/74 128/161/74 114/163/74
f 90/141/75 89/139/75 121/162/75 122/165/75
f 83/127/76 81/124/76 113/164/76 115/154/76
f 91/143/77 90/141/77 122/165/77 123/166/77
f 84/129/78 83/127/78 115/154/78 116/153/78
f 92/145/79 91/143/79 123/166/79 124/167/79
f 85/131/80 84/129/80 116/153/80 117/168/80
f 93/105/81 92/145/81 124/167/81 125/106/81
f 86/133/82 85/131/82 117/168/82 118/157/82
f 129/169/67 130/170/67 144/171/67 143/172/67 142/173/67 141/174/67 140/175/67 139/176/67 138/177/67 137/178/67 136/179/67 135/180/67 134/181/67 133/182/67 132/156/67 131/155/67
f 124/167/28 123/166/28 139/176/28 140/175/28
f 117/168/24 116/153/24 132/156/24 133/182/24
f 125/106/15 124/167/15 140/175/15 141/174/15
f 118/157/31 117/168/31 133/182/31 134/181/31
f 126/107/25 125/106/25 141/174/25 142/173/25
f 119/158/21 118/157/21 134/181/21 135/180/21
f 127/159/32 126/107/32 142/173/32 143/172/32
f 120/160/27 119/158/27 135/180/27 136/179/27
f 128/161/23 127/159/23 143/172/23 144/171/23
f 121/162/34 120/160/34 136/179/34 137/178/34
f 113/164/20 114/163/20 130/170/20 129/169/20
f 114/163/29 128/161/29 144/171/29 130/170/29
f 122/165/30 121/162/30 137/178/30 138/177/30
f 115/154/26 113/164/26 129/169/26 131/155/26
f 123/166/22 122/165/22 138/177/22 139/176/22
